{
	"asset":{
		"generator":"Khronos glTF Blender I/O v4.2.60",
		"version":"2.0"
	},
	"scene":0,
	"scenes":[
		{
			"name":"Scene",
			"nodes":[
				0
			]
		}
	],
	"nodes":[
		{
			"mesh":0,
			"name":"model",
			"rotation":[
				0.7071068286895752,
				0,
				0,
				0.7071068286895752
			],
			"scale":[
				5.955044269561768,
				5.955044269561768,
				5.955044269561768
			],
			"translation":[
				0,
				6.723708629608154,
				0
			]
		}
	],
	"materials":[
		{
			"doubleSided":true,
			"name":"Material.003",
			"normalTexture":{
				"index":0
			},
			"pbrMetallicRoughness":{
				"baseColorTexture":{
					"index":1
				},
				"metallicRoughnessTexture":{
					"index":2
				}
			}
		}
	],
	"meshes":[
		{
			"name":"model.002",
			"primitives":[
				{
					"attributes":{
						"POSITION":0,
						"NORMAL":1,
						"TEXCOORD_0":2
					},
					"indices":3,
					"material":0
				}
			]
		}
	],
	"textures":[
		{
			"sampler":0,
			"source":0
		},
		{
			"sampler":0,
			"source":1
		},
		{
			"sampler":0,
			"source":2
		}
	],
	"images":[
		{
			"mimeType":"image/png",
			"name":"texture_normal",
			"uri":"texture_normal.png"
		},
		{
			"mimeType":"image/png",
			"name":"texture_diffuse",
			"uri":"texture_diffuse.png"
		},
		{
			"mimeType":"image/png",
			"name":"texture_metallic.png-texture_roughness.png",
			"uri":"texture_metallic_png-texture_roughness_png.png"
		}
	],
	"accessors":[
		{
			"bufferView":0,
			"componentType":5126,
			"count":19595,
			"max":[
				0.31637299060821533,
				0.2282160073518753,
				0.9522460103034973
			],
			"min":[
				-0.32346901297569275,
				-0.22663700580596924,
				-0.9537320137023926
			],
			"type":"VEC3"
		},
		{
			"bufferView":1,
			"componentType":5126,
			"count":19595,
			"type":"VEC3"
		},
		{
			"bufferView":2,
			"componentType":5126,
			"count":19595,
			"type":"VEC2"
		},
		{
			"bufferView":3,
			"componentType":5123,
			"count":100188,
			"type":"SCALAR"
		}
	],
	"bufferViews":[
		{
			"buffer":0,
			"byteLength":235140,
			"byteOffset":0,
			"target":34962
		},
		{
			"buffer":0,
			"byteLength":235140,
			"byteOffset":235140,
			"target":34962
		},
		{
			"buffer":0,
			"byteLength":156760,
			"byteOffset":470280,
			"target":34962
		},
		{
			"buffer":0,
			"byteLength":200376,
			"byteOffset":627040,
			"target":34963
		}
	],
	"samplers":[
		{
			"magFilter":9729,
			"minFilter":9987
		}
	],
	"buffers":[
		{
			"byteLength":827416,
			"uri":"bolivar.bin"
		}
	]
}
